<?xml version="1.0" encoding="UTF-8"?>
<svg xmlns="http://www.w3.org/2000/svg" xmlns:xlink="http://www.w3.org/1999/xlink" width="299pt" height="91pt" viewBox="0 0 299 91" version="1.1">
<g id="surface1">
<path style=" stroke:none;fill-rule:nonzero;fill:rgb(4.705882%,13.333333%,21.960784%);fill-opacity:1;" d="M 290.867188 26.820312 L 170.667969 26.820312 L 170.789062 26.941406 L 170.070312 26.941406 C 169.234375 24.90625 168.636719 23.589844 168.398438 23.109375 C 168.398438 22.628906 168.875 21.671875 169.710938 20.355469 C 174.019531 13.53125 179.640625 10.175781 186.574219 10.175781 C 193.511719 10.175781 200.449219 12.8125 207.507812 17.960938 L 217.074219 25.265625 L 214.683594 18.199219 C 204.039062 7.421875 193.035156 2.035156 181.671875 2.035156 C 173.179688 2.035156 166.363281 6.464844 160.980469 15.445312 C 160.144531 16.761719 159.785156 18.558594 159.785156 20.476562 C 159.785156 22.390625 161.101562 24.546875 163.730469 26.941406 L 100.582031 26.941406 L 108.359375 34.363281 L 113.261719 34.363281 L 113.261719 64.65625 L 122.113281 73.636719 C 126.058594 63.460938 132.757812 56.394531 141.964844 52.445312 C 141.128906 56.515625 140.769531 60.585938 140.769531 64.898438 C 140.769531 70.164062 141.84375 77.828125 144 87.765625 L 150.097656 90.761719 C 148.78125 82.859375 148.183594 78.425781 148.183594 77.46875 C 148.183594 76.871094 148.183594 76.03125 148.066406 74.957031 C 147.945312 73.878906 147.945312 73.039062 147.945312 72.441406 C 147.945312 64.898438 150.457031 56.394531 155.597656 46.578125 L 144.957031 38.675781 C 138.378906 41.191406 133.113281 44.0625 129.289062 47.054688 C 125.699219 50.050781 123.070312 52.445312 121.511719 54.121094 L 121.511719 34.363281 L 164.808594 34.363281 L 164.808594 83.21875 L 172.582031 90.519531 L 172.582031 34.246094 L 178.683594 34.246094 L 178.800781 34.363281 L 220.0625 34.363281 L 220.0625 43.34375 C 217.671875 39.394531 214.683594 37.359375 211.09375 37.359375 C 210.019531 37.359375 208.820312 37.957031 207.507812 39.035156 C 206.191406 40.230469 205.113281 41.429688 204.394531 42.867188 C 201.167969 39.152344 197.460938 37.359375 193.152344 37.359375 C 188.96875 37.359375 185.738281 39.152344 183.109375 42.625 C 180.953125 45.738281 179.878906 49.332031 179.878906 53.28125 C 179.878906 58.191406 181.3125 62.261719 184.304688 65.257812 C 187.292969 68.25 191.242188 69.6875 196.261719 69.6875 C 198.417969 69.6875 200.449219 69.089844 202.363281 67.890625 C 204.636719 66.453125 205.710938 64.65625 205.710938 62.382812 C 205.710938 60.109375 205.113281 57.953125 203.796875 55.917969 C 202.242188 53.523438 200.210938 52.324219 197.820312 52.324219 C 195.785156 52.324219 194.109375 52.921875 192.675781 54.242188 C 191.242188 55.558594 190.523438 57.234375 190.523438 59.148438 C 190.523438 59.988281 190.640625 60.828125 191 61.664062 C 188.488281 60.707031 187.175781 58.671875 187.175781 55.675781 C 187.175781 53.402344 188.011719 51.367188 189.804688 49.691406 C 191.597656 48.015625 193.632812 47.296875 196.023438 47.296875 C 198.417969 47.296875 200.328125 47.894531 201.765625 48.972656 C 202.960938 49.929688 204.394531 51.605469 205.832031 53.882812 C 206.429688 54.839844 206.789062 55.4375 206.789062 55.675781 L 206.429688 57.59375 L 211.332031 55.558594 C 210.855469 52.921875 210.734375 51.488281 210.734375 51.128906 C 210.734375 48.492188 211.8125 47.175781 214.085938 47.175781 C 215.519531 47.175781 216.953125 47.773438 218.152344 48.972656 C 219.464844 50.167969 220.0625 51.488281 220.0625 53.042969 L 220.0625 83.816406 L 227.71875 91.238281 L 227.71875 34.484375 L 276.15625 34.484375 L 276.15625 43.464844 C 273.765625 39.511719 270.773438 37.476562 267.1875 37.476562 C 266.109375 37.476562 264.914062 38.078125 263.597656 39.152344 C 262.28125 40.351562 261.207031 41.546875 260.488281 42.984375 C 257.257812 39.273438 253.550781 37.476562 249.246094 37.476562 C 245.058594 37.476562 241.832031 39.273438 239.199219 42.746094 C 237.046875 45.859375 235.972656 49.453125 235.972656 53.402344 C 235.972656 58.3125 237.40625 62.382812 240.394531 65.375 C 243.386719 68.371094 247.332031 69.804688 252.355469 69.804688 C 254.507812 69.804688 256.542969 69.207031 258.457031 68.011719 C 260.726562 66.574219 261.804688 64.777344 261.804688 62.503906 C 261.804688 60.226562 261.207031 58.074219 259.890625 56.035156 C 258.335938 53.640625 256.304688 52.445312 253.910156 52.445312 C 251.878906 52.445312 250.203125 53.042969 248.769531 54.359375 C 247.332031 55.675781 246.613281 57.355469 246.613281 59.269531 C 246.613281 60.109375 246.734375 60.945312 247.09375 61.785156 C 244.582031 60.828125 243.265625 58.789062 243.265625 55.796875 C 243.265625 53.523438 244.105469 51.488281 245.898438 49.808594 C 247.691406 48.132812 249.726562 47.414062 252.117188 47.414062 C 254.507812 47.414062 256.421875 48.015625 257.859375 49.09375 C 259.054688 50.050781 260.488281 51.726562 261.925781 54 C 262.523438 54.960938 262.878906 55.558594 262.878906 55.796875 L 262.523438 57.714844 L 267.425781 55.675781 C 266.945312 53.042969 266.828125 51.605469 266.828125 51.246094 C 266.828125 48.613281 267.902344 47.296875 270.175781 47.296875 C 271.613281 47.296875 273.046875 47.894531 274.242188 49.09375 C 275.558594 50.289062 276.15625 51.605469 276.15625 53.164062 L 276.15625 83.816406 L 283.8125 91.238281 L 283.8125 34.484375 L 298.761719 34.484375 Z M 290.867188 26.820312 "/>
<path style=" stroke:none;fill-rule:nonzero;fill:rgb(4.705882%,13.333333%,21.960784%);fill-opacity:1;" d="M 58.722656 48.492188 C 51.546875 53.402344 46.046875 59.75 42.339844 67.410156 L 40.1875 71.84375 L 24.875 58.789062 L 24.875 6.945312 C 11.363281 14.726562 2.152344 29.214844 2.152344 45.738281 C 2.152344 70.523438 22.484375 90.640625 47.71875 90.640625 C 51.546875 90.640625 55.136719 90.160156 58.722656 89.324219 C 56.570312 83.457031 55.496094 75.914062 55.496094 66.695312 C 55.496094 61.664062 56.570312 55.558594 58.722656 48.492188 Z M 58.722656 48.492188 "/>
<path style=" stroke:none;fill-rule:nonzero;fill:rgb(4.705882%,13.333333%,21.960784%);fill-opacity:1;" d="M 93.167969 45.859375 C 93.167969 21.074219 72.835938 0.957031 47.601562 0.957031 C 45.449219 0.957031 43.175781 1.078125 41.140625 1.4375 L 41.140625 40.710938 C 51.429688 32.925781 60.757812 27.058594 68.890625 23.347656 L 70.683594 22.511719 L 87.667969 32.570312 L 84.914062 35.921875 C 78.578125 43.824219 74.390625 50.410156 72.597656 55.199219 C 70.5625 60.46875 69.605469 68.011719 69.605469 77.589844 C 69.605469 79.984375 69.847656 82.257812 70.445312 84.652344 C 83.960938 76.992188 93.167969 62.382812 93.167969 45.859375 Z M 93.167969 45.859375 "/>
<path style=" stroke:none;fill-rule:nonzero;fill:rgb(100%,100%,100%);fill-opacity:1;" d="M 72.597656 55.320312 C 74.511719 50.410156 78.578125 43.945312 84.914062 36.039062 L 87.667969 32.6875 L 70.683594 22.628906 L 68.890625 23.46875 C 60.757812 27.179688 51.429688 33.046875 41.140625 40.832031 L 41.140625 1.554688 C 35.28125 2.394531 29.78125 4.308594 24.757812 7.183594 L 24.757812 59.03125 L 40.066406 71.960938 L 42.21875 67.53125 C 45.925781 59.988281 51.429688 53.640625 58.605469 48.613281 C 56.453125 55.675781 55.375 61.785156 55.375 66.8125 C 55.375 76.03125 56.453125 83.578125 58.605469 89.445312 C 62.789062 88.367188 66.738281 86.808594 70.324219 84.773438 C 69.726562 82.378906 69.488281 80.105469 69.488281 77.710938 C 69.605469 68.128906 70.5625 60.585938 72.597656 55.320312 Z M 72.597656 55.320312 "/>
</g>
</svg>
