<?xml version="1.0" encoding="utf-8"?>
<!-- Generator: Adobe Illustrator 18.1.1, SVG Export Plug-In . SVG Version: 6.00 Build 0)  -->
<svg version="1.1" id="Layer_1" xmlns="http://www.w3.org/2000/svg" xmlns:xlink="http://www.w3.org/1999/xlink" x="0px" y="0px"
	 viewBox="0 0 520 520" enable-background="new 0 0 520 520" xml:space="preserve">
<circle fill="#FFFFFF" stroke="#0C2237" stroke-width="5" stroke-miterlimit="10" cx="260" cy="259.7" r="256"/>
<path fill="#0C2237" d="M399.9,314.2c10.5-27.7,33.8-64.7,69.3-109.9l15.1-19.3l-95.1-57.1l-10.3,4.8
	c-45.4,21.2-97.6,54.4-155.3,98.9l0-223.5c-33,4.7-64,15.8-91.7,31.8l0,294.6l85.6,73.7l12.2-24.9c21-43.2,51.9-79.2,92.2-107.4
	c-12.1,40-18.3,74.8-18.3,103.8c0,52.4,6,95.5,17.8,128.6c23.5-5.8,45.6-14.9,66-26.7c-3.1-13.4-4.7-26.5-4.7-40.1
	C382.8,387.2,388.5,344.4,399.9,314.2z"/>
</svg>
